#!OML:ASF E:\motion texture\Top Level 1\Subject 1\Session 1\male.ASF
:FULLY-SPECIFIED
:DEGREES
591
root -28.5105 16.6175 1.53438 14.0879 -76.4537 -18.0375
lowerback 6.13216 -0.984468 4.94458
upperback 3.3719 -1.18821 4.45439
thorax 0.0477002 -0.637404 1.89213
lowerneck -17.4244 5.33833 0.505484
upperneck 19.3506 8.36248 -5.31986
head 9.22811 3.30436 -0.818127
rclavicle -1.39149e-014 -7.15625e-015
rhumerus -19.473 -8.0017 -74.4794
rradius 54.4356
rwrist 7.69815
rhand -15.948 -25.6875
rfingers 7.12502
rthumb 10.2503 -55.4178
lclavicle -1.39149e-014 -7.15625e-015
lhumerus -10.848 -5.50219 97.6443
lradius 35.416
lwrist -29.0392
lhand -8.46827 14.4311
lfingers 7.12502
lthumb 17.4582 43.6671
rfemur -35.015 -4.36768 20.3691
rtibia 38.6253
rfoot 5.10446 -11.4352
rtoes 18.3788
lfemur -15.3673 -0.932132 -11.0121
ltibia 64.3378
lfoot -5.59959 -21.1937
ltoes -11.9149
592
root -28.4148 16.6408 1.54253 13.9117 -76.2002 -17.785
lowerback 6.02921 -0.900118 4.9104
upperback 3.3394 -1.07924 4.38251
thorax 0.0702551 -0.580421 1.82821
lowerneck -17.4208 5.29567 0.422692
upperneck 19.3362 8.32466 -5.31986
head 9.2179 3.2811 -0.810134
rclavicle 5.96354e-015 1.19271e-014
rhumerus -19.5455 -8.06596 -74.3003
rradius 54.6188
rwrist 7.5774
rhand -16.0528 -25.8506
rfingers 7.12502
rthumb 10.1492 -55.5858
lclavicle 5.96354e-015 1.19271e-014
lhumerus -10.9795 -4.89067 97.2065
lradius 35.4252
lwrist -28.6886
lhand -8.81247 14.8074
lfingers 7.12502
lthumb 17.127 44.0726
rfemur -34.7513 -4.46467 20.0947
rtibia 37.5394
rfoot 5.69452 -11.6111
rtoes 18.4142
lfemur -15.3504 -1.09953 -11.1527
ltibia 63.7547
lfoot -6.55348 -20.9769
ltoes -11.8009
593
root -28.3167 16.6647 1.55084 13.7596 -75.9525 -17.5483
lowerback 5.92248 -0.812844 4.8751
upperback 3.30447 -0.966425 4.3083
thorax 0.0925887 -0.52151 1.76256
lowerneck -17.4183 5.25361 0.33332
upperneck 19.3228 8.28914 -5.31836
head 9.208 3.25851 -0.800222
rclavicle 3.37934e-014 -6.91771e-014
rhumerus -19.6354 -8.14633 -74.122
rradius 54.7462
rwrist 7.46687
rhand -16.1503 -26.0249
rfingers 7.12502
rthumb 10.0551 -55.7647
lclavicle 3.37934e-014 -6.91771e-014
lhumerus -11.1086 -4.22502 96.7379
lradius 35.4061
lwrist -28.3322
lhand -9.175 15.1978
lfingers 7.12502
lthumb 16.778 44.4928
rfemur -34.4842 -4.55189 19.812
rtibia 36.4469
rfoot 6.25211 -11.7992
rtoes 18.4137
lfemur -15.3396 -1.27579 -11.2998
ltibia 63.1459
lfoot -7.47808 -20.7394
ltoes -11.6697
594
root -28.2166 16.6894 1.55928 13.6297 -75.7129 -17.3278
lowerback 5.81261 -0.721968 4.83795
upperback 3.26881 -0.849017 4.2322
thorax 0.116159 -0.46031 1.69603
lowerneck -17.4144 5.21255 0.240905
upperneck 19.3072 8.2564 -5.32023
head 9.19728 3.23669 -0.79063
rclavicle 3.8763e-015 5.24792e-014
rhumerus -19.7383 -8.24084 -73.9458
rradius 54.8153
rwrist 7.36798
rhand -16.2387 -26.2061
rfingers 7.12502
rthumb 9.96984 -55.95
lclavicle 3.8763e-015 5.24792e-014
lhumerus -11.2413 -3.51448 96.2385
lradius 35.3683
lwrist -27.9662
lhand -9.554 15.6018
lfingers 7.12502
lthumb 16.4131 44.9274
rfemur -34.211 -4.62708 19.5217
rtibia 35.3527
rfoot 6.77358 -11.9987
rtoes 18.3679
lfemur -15.3317 -1.45923 -11.4531
ltibia 62.5109
lfoot -8.36776 -20.4821
ltoes -11.5146
595
root -28.1144 16.7148 1.56782 13.5233 -75.4814 -17.1252
lowerback 5.70141 -0.627317 4.80093
upperback 3.23112 -0.726428 4.15397
thorax 0.138598 -0.396539 1.6273
lowerneck -17.4103 5.17235 0.142848
upperneck 19.2921 8.22632 -5.32202
head 9.1866 3.21567 -0.779743
rclavicle -1.59028e-014 1.59028e-015
rhumerus -19.8568 -8.34803 -73.773
rradius 54.8305
rwrist 7.28152
rhand -16.3113 -26.4006
rfingers 7.12502
rthumb 9.89984 -56.1478
lclavicle -1.59028e-014 1.59028e-015
lhumerus -11.3776 -2.75896 95.7097
lradius 35.3079
lwrist -27.5998
lhand -9.94983 16.0096
lfingers 7.12502
lthumb 16.032 45.3663
rfemur -33.9321 -4.69066 19.2257
rtibia 34.2641
rfoot 7.25255 -12.2118
rtoes 18.2789
lfemur -15.3271 -1.64972 -11.6109
ltibia 61.8511
lfoot -9.22073 -20.2063
ltoes -11.3475
